<?xml version="1.0" encoding="UTF-8"?>
<svg id="Layer_2" data-name="Layer 2" xmlns="http://www.w3.org/2000/svg" viewBox="0 0 90.67 89.82">
  <defs>
    <style>
      .cls-1 {
        fill: #895737;
        stroke: #895737;
        stroke-miterlimit: 10;
      }
    </style>
  </defs>
  <g id="Layer_1-2" data-name="Layer 1">
    <path class="cls-1" d="m42.45,66.58c3.73.49,8.23-.11,11.46,1.67,7.74,4.29,6.43,13,6.17,20.47,0,.33-.18.5-.51.5-11.99.02-23.97.02-35.95,0-6.04,0-10.29-.52-12.75-1.55-8.52-3.55-12.75-14.47-9-22.98,3.83-8.68,16.77-13.4,9.45-25.14-1.52-2.43-6.54-5.49-7.36-8.81-1.07-4.31,3.99-7.28,7.66-3.86,2.78,2.6,5.97,5.43,7.8,8.58,5.23,9.03,3.48,18.23-3.34,25.81-2.13,2.37-6.08,5.52-6.23,9.15-.25,6.15,2.86,9.41,9.35,9.78.47.03.7-.2.7-.67.04-17.95,4.67-42.64,25.83-47.45.43-.1.65-.37.65-.82,0-10.21-3.06-25.28,9.71-29.86,6.13-2.19,12.19-.61,12.37,7.01,0,.35.18.53.53.55,1.1.06,2.14.06,3.12-.01,15.63-1.05,27.38,23.62,7.81,30.41-.35.12-.52.37-.52.74-.04,11.85-.04,23.68.01,35.5.04,9.51-5.31,15.09-15.51,13.42-.33-.05-.5-.25-.5-.59-.06-4.29.35-9.57-.52-13.23-2.42-10.08-11.15-12.23-20.4-11.23-.72.05-1.26.68-1.21,1.4.05.63.54,1.14,1.18,1.21Zm34.43-29.77c8.12-.9,12.98-7.69,9.08-15.26-5.38-10.44-9.33-9.5-19.87-9.58-.35,0-.53-.18-.54-.53-.1-3,.35-8.26-4.44-7.99-15.41.88-12.35,20.35-11.58,30.24.05.58-.38,1.08-.95,1.13,0,0,0,0,0,0-22.27,1.74-26.04,31.22-25.67,47.8,0,.29-.14.45-.43.47-3.97.35-6.72.13-8.27-.64-7.65-3.83-10.35-12.11-4.3-18.71,3.29-3.6,6.95-7.13,8.52-11.38,3.94-10.62-1.99-16.94-9.21-23.86-.25-.23-.55-.33-.89-.3-.86.09-1.37.58-1.53,1.45-.09.5.09,1.01.46,1.36,6.23,5.79,11.7,11.77,7.99,20.72-1.92,4.63-7.36,8.59-9.8,12.31-4.52,6.89-1.28,17.63,6.62,20.97,1.92.81,4.86,1.22,8.82,1.21,11.84-.01,23.69,0,35.56.05.31,0,.47-.15.5-.45,1.19-12.22-1.01-15.96-13.33-16.12-3.17-.04-5.16-1.69-4.91-4.88.35-4.6,6.5-4.34,9.81-4.1,8.99.65,15.7,5.63,17.51,14.72.61,3.02.34,6.88.37,10.25,0,.34.17.52.51.54,7.37.46,9.51-4.06,9.49-10.75-.04-12.71-.04-25.43,0-38.14,0-.32.17-.5.48-.53Z"/>
  </g>
</svg>